<?xml version="1.0" standalone="no"?>
<!DOCTYPE svg PUBLIC "-//W3C//DTD SVG 20010904//EN"
 "http://www.w3.org/TR/2001/REC-SVG-20010904/DTD/svg10.dtd">
<svg version="1.0" xmlns="http://www.w3.org/2000/svg"
 width="460.000000pt" height="460.000000pt" viewBox="0 0 460.000000 460.000000"
 preserveAspectRatio="xMidYMid meet">
<metadata>
Created by potrace 1.14, written by Peter Selinger 2001-2017
</metadata>
<g transform="translate(0.000000,460.000000) scale(0.100000,-0.100000)"
fill="#000000" stroke="none">
<path d="M2612 3385 c-40 -6 -80 -19 -89 -28 -12 -12 -16 -39 -18 -107 l-2
-91 -49 -45 c-47 -43 -48 -44 -11 -23 24 14 46 19 62 15 25 -6 35 -26 14 -26
-8 0 -8 -5 1 -15 8 -10 31 -15 66 -15 31 0 54 -4 54 -11 0 -6 -17 -8 -47 -5
-35 4 -41 3 -23 -3 25 -9 25 -9 2 -10 -13 -1 -21 -5 -18 -10 4 -5 -3 -7 -14
-4 -11 3 -17 10 -14 15 8 13 -22 -5 -56 -31 -14 -12 -19 -21 -12 -21 6 0 21 9
31 19 14 14 22 16 30 8 9 -9 62 -27 118 -40 7 -2 15 -6 19 -9 3 -4 12 -4 20
-1 8 3 17 -2 20 -11 10 -25 1 -28 -27 -9 -13 10 -32 19 -41 20 -25 4 -32 -14
-8 -22 21 -7 28 -25 9 -25 -6 0 -19 4 -29 10 -31 17 -48 1 -72 -66 -16 -45
-27 -63 -37 -59 -9 4 -11 0 -7 -11 3 -8 6 -23 7 -32 0 -15 1 -14 8 1 4 10 10
18 14 17 11 -1 37 27 37 39 0 6 9 20 20 31 19 19 19 47 0 35 -4 -3 -6 3 -3 14
3 13 11 17 24 14 25 -7 24 -16 -7 -69 -34 -58 -39 -155 -10 -199 28 -43 30
-78 4 -90 -11 -6 -20 -14 -19 -19 4 -16 -22 -25 -54 -19 -16 3 -27 3 -24 -1 3
-4 26 -10 50 -15 l44 -9 -42 -1 c-23 -1 -48 5 -55 12 -7 6 -25 18 -40 26 -26
13 -29 31 -7 31 6 0 7 -4 4 -10 -3 -5 -2 -10 3 -10 5 0 14 12 21 27 7 15 26
44 43 66 25 31 28 41 18 50 -9 8 -11 8 -7 1 4 -7 -6 -26 -22 -44 l-28 -33 -17
26 c-15 22 -16 35 -6 107 6 45 15 93 20 106 10 26 26 32 33 12 7 -21 48 55 44
80 -4 18 -2 20 10 11 11 -9 12 -8 7 5 -3 9 -1 16 5 16 6 0 11 -4 11 -10 0 -5
5 -10 10 -10 6 0 10 7 10 15 0 8 -6 15 -12 15 -7 0 -25 6 -39 14 -24 12 -29
11 -77 -28 -28 -22 -61 -48 -73 -57 -12 -8 -20 -22 -17 -30 4 -10 18 -1 51 33
62 63 88 80 107 68 13 -9 13 -10 0 -10 -21 0 -87 -56 -95 -80 -4 -11 -13 -20
-20 -20 -8 0 -16 -14 -19 -32 -3 -18 -10 -69 -17 -113 -14 -96 -32 -145 -53
-145 -11 0 -16 -10 -16 -30 0 -16 -5 -30 -11 -30 -5 0 -7 -5 -4 -10 4 -6 -2
-28 -11 -50 -15 -33 -26 -42 -66 -56 -26 -8 -49 -21 -49 -27 -1 -7 -4 -23 -6
-37 -3 -14 -6 -45 -6 -70 0 -25 -2 -37 -5 -27 -3 14 -10 7 -27 -28 -13 -25
-29 -62 -36 -82 -8 -26 -14 -32 -20 -22 -5 8 -6 26 -3 42 12 59 -16 22 -55
-72 -34 -82 -41 -111 -41 -165 0 -36 -4 -66 -9 -66 -6 0 -11 -19 -13 -42 l-3
-43 -12 45 c-11 44 -11 42 -13 -50 -3 -111 -6 -103 -16 35 -6 96 -7 98 -21 71
-20 -39 -21 -158 0 -188 23 -36 78 -88 106 -103 50 -25 87 -27 145 -7 31 10
56 16 56 13 0 -3 -9 -17 -20 -31 -42 -54 -7 -68 65 -25 l43 25 -20 -63 c-10
-34 -33 -89 -50 -122 -96 -185 -100 -196 -96 -235 3 -34 2 -37 -12 -26 -8 7
-21 11 -27 9 -24 -9 -13 -29 23 -42 20 -7 44 -20 53 -30 9 -9 33 -27 54 -41
33 -23 65 -62 35 -44 -7 5 -24 8 -38 8 -15 1 -24 6 -22 14 1 8 -1 11 -6 8 -11
-7 -72 15 -72 26 0 15 -28 8 -34 -8 -5 -12 -1 -14 16 -8 17 5 20 3 15 -10 -5
-12 4 -18 39 -27 24 -6 43 -14 40 -16 -2 -2 -23 1 -47 7 -68 19 -105 -11 -88
-70 6 -22 7 -23 8 -4 2 34 25 35 81 6 28 -14 47 -28 40 -30 -6 -2 -17 1 -24 8
-21 17 -78 -10 -110 -52 -14 -19 -26 -38 -26 -41 0 -4 26 6 58 23 107 55 157
58 145 9 -6 -21 -8 -21 -75 -19 -59 2 -160 -43 -151 -66 5 -13 8 -13 23 1 20
19 80 37 80 25 0 -5 -6 -11 -12 -13 -8 -3 -6 -6 5 -6 10 -1 17 6 18 17 0 9 3
12 5 6 3 -7 14 -9 26 -6 14 3 19 1 15 -6 -4 -5 -25 -13 -47 -17 -22 -4 -47
-13 -54 -20 -7 -8 -16 -11 -20 -8 -3 4 -6 -3 -6 -15 0 -11 -6 -23 -12 -25 -7
-3 -1 -6 14 -6 27 -1 47 -16 28 -23 -7 -2 -7 -14 0 -37 6 -23 6 -39 0 -47 -18
-21 5 -61 39 -69 42 -9 39 -27 -3 -24 -19 2 -38 0 -42 -4 -4 -4 -15 -7 -25 -7
-28 0 -33 -32 -9 -52 12 -10 26 -18 31 -18 15 0 21 22 8 31 -11 7 -10 9 4 9
26 0 35 -34 42 -173 l8 -127 -24 -9 c-15 -5 -26 -5 -30 2 -12 18 -39 -2 -39
-28 0 -18 4 -24 12 -19 8 5 9 2 5 -9 -4 -11 -1 -17 8 -17 8 0 15 6 15 14 0 9
7 12 20 9 11 -3 20 -9 20 -14 0 -11 1000 -12 1016 -1 6 4 14 14 17 22 4 12 6
11 6 -2 1 -24 4 -23 41 14 19 18 35 27 38 21 8 -12 122 6 122 19 0 4 -5 8 -11
8 -6 0 -9 7 -5 15 3 8 1 15 -5 15 -6 0 -7 4 -4 10 3 5 3 16 -1 22 -22 35 6 78
42 64 16 -6 19 -46 4 -46 -5 0 -10 -6 -10 -13 0 -12 16 -14 68 -8 16 1 15 15
-2 54 -32 75 -35 87 -26 87 6 0 17 -15 25 -32 l15 -33 -7 40 c-3 22 -6 52 -5
67 1 21 -2 26 -15 21 -12 -5 -14 -3 -8 8 5 8 9 25 10 39 0 14 2 25 5 26 3 0
15 6 27 12 20 11 22 9 26 -15 2 -16 2 -12 0 7 -6 55 -9 144 -4 154 2 4 7 3 11
-4 12 -19 28 -4 56 51 l25 50 48 -7 c47 -6 49 -5 64 26 9 18 19 48 23 69 8 44
29 86 60 124 13 16 27 41 30 55 4 15 15 44 26 65 19 37 18 39 -2 140 -12 56
-32 129 -45 162 -12 33 -39 121 -60 195 -93 343 -155 539 -198 625 -32 66
-119 165 -182 207 -22 16 -49 35 -60 43 -10 8 -23 15 -28 15 -4 0 -6 4 -3 9 3
5 3 23 -1 41 -8 41 -34 52 -177 77 -107 18 -109 19 -123 50 -7 18 -13 61 -13
96 l0 64 68 23 c78 26 121 52 181 114 34 35 44 52 45 81 1 35 -1 37 -49 54
-27 10 -68 27 -91 39 -39 20 -41 23 -47 79 -3 32 -14 85 -24 117 -18 57 -21
60 -93 104 -66 40 -81 45 -139 47 -37 2 -99 -3 -139 -10z m98 -384 c0 -16 -26
-31 -52 -31 -30 0 -31 1 -22 25 6 15 8 15 25 0 16 -16 17 -16 12 3 -4 17 -1
20 16 15 12 -3 21 -8 21 -12z m-194 -113 c4 -7 3 -8 -4 -4 -7 4 -12 2 -12 -5
0 -7 -3 -10 -6 -6 -6 5 3 27 11 27 2 0 7 -5 11 -12z m-36 -12 c0 -2 -8 -10
-17 -17 -16 -13 -17 -12 -4 4 13 16 21 21 21 13z m420 -11 c-7 -9 -15 -13 -17
-11 -7 7 7 26 19 26 6 0 6 -6 -2 -15z m-175 -17 c-19 -11 -30 -5 -21 11 4 6
14 7 22 4 15 -5 14 -7 -1 -15z m-55 2 c0 -5 -2 -10 -4 -10 -3 0 -8 5 -11 10
-3 6 -1 10 4 10 6 0 11 -4 11 -10z m220 -33 c0 -24 -27 -87 -36 -87 -3 0 -12
6 -20 14 -10 10 -11 17 -3 21 6 4 9 15 6 25 -6 25 11 50 33 50 14 0 20 -7 20
-23z m168 -309 c18 -18 15 -28 -8 -28 -11 0 -20 6 -20 14 0 8 -10 17 -22 19
-18 3 -16 5 8 6 16 0 35 -4 42 -11z m-418 -33 c0 -14 -2 -25 -4 -25 -2 0 -6
11 -8 25 -3 14 -1 25 3 25 5 0 9 -11 9 -25z m527 9 c-3 -3 -12 -4 -19 -1 -8 3
-5 6 6 6 11 1 17 -2 13 -5z m-643 -50 c17 -7 22 -59 7 -82 -6 -11 -14 -8 -34
12 -23 23 -25 30 -15 51 12 26 17 29 42 19z m134 -64 c0 -22 -1 -22 -8 5 -4
17 -8 39 -8 50 0 16 2 15 8 -5 4 -14 8 -36 8 -50z m9 -62 c-3 -7 -5 -2 -5 12
0 14 2 19 5 13 2 -7 2 -19 0 -25z m643 -857 c17 -33 11 -47 -10 -21 -11 14
-20 28 -20 33 0 14 20 7 30 -12z m60 -191 l0 -24 -21 20 c-15 16 -19 28 -13
49 l7 28 13 -24 c7 -13 13 -35 14 -49z m-161 -548 c-14 -5 -39 6 -39 17 0 5
11 4 25 -2 13 -7 20 -14 14 -15z m181 -522 c0 -11 -4 -20 -10 -20 -5 0 -10 9
-10 20 0 11 5 20 10 20 6 0 10 -9 10 -20z m-136 -101 c-8 -14 -34 -10 -34 5 0
9 7 12 20 9 11 -3 17 -9 14 -14z"/>
<path d="M2496 3055 c4 -8 11 -15 16 -15 6 0 5 6 -2 15 -7 8 -14 15 -16 15 -2
0 -1 -7 2 -15z"/>
<path d="M2409 2933 l-24 -28 28 24 c25 23 32 31 24 31 -2 0 -14 -12 -28 -27z"/>
<path d="M2340 2925 c-19 -7 -56 -19 -82 -25 -27 -7 -48 -16 -48 -20 0 -11 95
-90 109 -90 7 0 11 21 11 55 0 49 3 57 25 67 14 6 25 15 25 20 0 10 3 10 -40
-7z"/>
<path d="M2170 2400 c0 -5 5 -10 10 -10 6 0 10 5 10 10 0 6 -4 10 -10 10 -5 0
-10 -4 -10 -10z"/>
<path d="M2106 2251 c-4 -7 -5 -15 -2 -18 9 -9 19 4 14 18 -4 11 -6 11 -12 0z"/>
<path d="M1936 1978 c-9 -12 -16 -26 -16 -31 0 -13 29 12 41 35 14 26 -6 23
-25 -4z"/>
<path d="M2135 1461 c-3 -5 2 -11 10 -15 8 -3 17 -1 20 3 3 5 -2 11 -10 15 -8
3 -17 1 -20 -3z"/>
<path d="M2055 1031 c-3 -5 -1 -12 5 -16 5 -3 10 1 10 9 0 18 -6 21 -15 7z"/>
<path d="M3451 343 c-1 -6 -4 -19 -8 -29 -4 -12 -3 -15 6 -10 9 6 11 -2 8 -33
-2 -23 0 -41 5 -41 10 0 9 66 -2 100 -4 14 -8 20 -9 13z"/>
<path d="M2015 297 c-10 -37 0 -186 13 -199 8 -8 15 -8 27 2 17 14 20 75 6
130 -5 19 -12 47 -15 63 -8 33 -24 35 -31 4z"/>
<path d="M3453 213 c9 -2 17 -9 17 -14 0 -6 -4 -8 -9 -5 -5 4 -7 -4 -3 -16 5
-21 6 -21 13 -2 13 33 10 44 -13 43 -17 -1 -19 -2 -5 -6z"/>
<path d="M3482 140 c-1 -8 5 -44 13 -80 11 -56 13 -60 13 -25 0 37 -25 139
-26 105z"/>
<path d="M1462 56 c15 -16 38 -17 32 -1 -3 6 -13 11 -24 12 -15 1 -17 -1 -8
-11z"/>
<path d="M1415 10 c3 -5 8 -10 11 -10 2 0 4 5 4 10 0 6 -5 10 -11 10 -5 0 -7
-4 -4 -10z"/>
<path d="M3170 10 c0 -5 5 -10 11 -10 5 0 7 5 4 10 -3 6 -8 10 -11 10 -2 0 -4
-4 -4 -10z"/>
</g>
</svg>
